<svg width="37" height="36" viewBox="0 0 37 36" fill="none" xmlns="http://www.w3.org/2000/svg">
<path d="M18.5019 36C28.4431 36 36.502 27.9411 36.502 18C36.502 8.05888 28.4431 0 18.5019 0C8.56082 0 0.501953 8.05888 0.501953 18C0.501953 27.9411 8.56082 36 18.5019 36Z" fill="#743995" fill-opacity="0.33"/>
<mask id="mask0_444_26620" style="mask-type:luminance" maskUnits="userSpaceOnUse" x="0" y="0" width="37" height="36">
<path d="M18.5 36C28.4411 36 36.5 27.9411 36.5 18C36.5 8.05888 28.4411 0 18.5 0C8.55887 0 0.5 8.05888 0.5 18C0.5 27.9411 8.55887 36 18.5 36Z" fill="white"/>
</mask>
<g mask="url(#mask0_444_26620)">
<path d="M12.994 16.9946C12.9149 17.1047 12.7292 26.4607 14.48 28.3663L24.3279 28.3044C24.3279 28.3044 26.973 21.1051 25.1156 16.9189L12.9355 16.9946" fill="#231F20"/>
<path d="M22.4926 22.8649L15.5996 22.9082L15.6288 27.5517L22.5218 27.5084L22.4926 22.8649Z" fill="#FBBCA0"/>
<g style="mix-blend-mode:multiply">
<path d="M17.292 26.2578C18.3342 26.6637 19.4727 26.9044 20.5941 26.9079C21.2339 26.9079 21.8874 26.8253 22.5169 26.7084L22.4928 22.8662L15.5996 22.9075L15.6134 25.3084C16.0984 25.7315 16.721 26.0342 17.292 26.2543V26.2578Z" fill="#E6E7E8"/>
</g>
<path d="M26.6829 14.6559C26.6932 16.6028 26.3699 18.5703 25.4653 20.2626C24.6707 21.7417 23.4771 22.9284 22.1907 23.8778C21.1484 24.6483 20.0271 25.546 18.7028 25.4463C17.32 25.3431 16.2331 24.1702 15.2184 23.2552C13.7909 21.9722 12.6592 20.3693 11.9541 18.4843C11.5207 17.3217 11.3177 16.0077 11.3109 14.7522C11.273 8.461 14.6887 4.48125 18.9367 4.45717C23.1813 4.42966 26.6485 8.36469 26.6898 14.6559H26.6829Z" fill="#FBBCA0"/>
<path d="M29.5791 29.5666L22.0805 27.3652L19.0776 27.3824L16.0747 27.3996L8.6037 29.6939C8.6037 29.6939 5.14335 31.1902 4.78906 35.8613L19.1326 35.7719L33.4762 35.6825C33.06 31.0148 29.5825 29.5632 29.5825 29.5632L29.5791 29.5666Z" fill="#FBBCA0"/>
<path d="M29.5786 29.5673L25.4303 28.3496L19.1219 34.7337L12.7137 28.4356L8.59979 29.698C8.59979 29.698 5.06033 31.2183 4.78516 35.8654L25.7571 35.7347L33.6168 35.6865C32.8876 30.8468 29.5786 29.5673 29.5786 29.5673Z" fill="#003A54"/>
<path d="M11.7383 11.0237C13.5544 12.7814 19.3366 12.3652 18.628 12.3342L19.3091 8.78445L19.7597 12.3858C19.7597 12.3858 20.8466 12.8055 23.3095 12.3961L23.9011 9.94707L24.3379 12.207C24.3379 12.207 26.0234 11.7495 26.4052 10.9239C26.4052 10.9239 26.0716 4.70152 19.6255 4.10645C19.6255 4.10645 13.1486 4.24059 11.7383 11.0203V11.0237Z" fill="#231F20"/>
<path d="M24.3039 6.19434C24.3039 6.19434 27.152 24.2941 23.4199 29.2301C23.4199 29.2301 27.2483 27.7063 27.723 24.6105C27.723 24.6105 30.7431 11.378 24.3039 6.19777V6.19434Z" fill="#231F20"/>
<path d="M14.7987 6.12207C14.7987 6.12207 11.7408 24.3938 15.5348 29.2816C15.5348 29.2816 11.6892 27.806 11.1733 24.7137C11.1733 24.7137 8.42495 11.3848 14.7987 6.12207Z" fill="#231F20"/>
<path d="M12.5664 28.4833L19.181 35.2183L26.3046 28.6037L24.1995 27.7851L19.0847 28.8136L14.957 27.4102L12.5664 28.4833Z" fill="#E2E3E4"/>
<path d="M12.5664 28.4839L15.7585 27.053L19.0296 28.3119L22.287 27.0117L25.7164 28.4014L20.8974 31.4696L19.0331 28.9964L17.0587 31.4937L12.5664 28.4839Z" fill="#CDCFD0"/>
</g>
</svg>
