<svg width="36" height="36" viewBox="0 0 36 36" fill="none" xmlns="http://www.w3.org/2000/svg">
<path d="M18 36C27.9411 36 36 27.9411 36 18C36 8.05888 27.9411 0 18 0C8.05887 0 0 8.05888 0 18C0 27.9411 8.05887 36 18 36Z" fill="#D1BEDC"/>
<mask id="mask0_444_26583" style="mask-type:alpha" maskUnits="userSpaceOnUse" x="0" y="0" width="36" height="36">
<path d="M18 36C27.9411 36 36 27.9411 36 18C36 8.05888 27.9411 0 18 0C8.05887 0 0 8.05888 0 18C0 27.9411 8.05887 36 18 36Z" fill="#18ADD9"/>
</mask>
<g mask="url(#mask0_444_26583)">
<path d="M20.9289 24.2607H14.6172V28.5126H20.9289V24.2607Z" fill="#FBBCA0"/>
<g style="mix-blend-mode:multiply">
<path d="M16.1479 27.3378C17.099 27.7158 18.1415 27.9425 19.1651 27.952C19.7509 27.9583 20.3493 27.8827 20.9289 27.7819V24.2607H14.6172V26.4591C15.0613 26.8496 15.625 27.13 16.1479 27.3347V27.3378Z" fill="#E6E7E8"/>
</g>
<path d="M24.3625 16.3834C24.3814 16.2291 24.6397 15.9771 24.7531 15.8921C25.0019 15.7031 25.2538 15.8984 25.3294 16.1441C25.3956 16.3645 25.4019 16.6133 25.4176 16.8401C25.4554 17.3976 25.3735 17.9456 25.1278 18.4495C24.9641 18.7865 24.7058 19.0605 24.4035 19.2684C24.4035 19.2684 24.0759 19.4353 24.0098 19.0511C24.0098 19.0511 24.3657 16.3834 24.3657 16.3803L24.3625 16.3834Z" fill="#FBBCA0"/>
<path d="M24.3118 16.7207C24.3275 16.6105 24.5102 16.431 24.5889 16.368C24.7684 16.2325 24.948 16.3711 25.0015 16.5475C25.0487 16.705 25.0519 16.8813 25.0645 17.0483C25.0928 17.4483 25.033 17.8388 24.8566 18.1978C24.7401 18.4372 24.5543 18.6356 24.3369 18.7837C24.3369 18.7837 24.1039 18.9033 24.0566 18.6293C24.0566 18.6293 24.3118 16.7207 24.3118 16.7176V16.7207Z" fill="#DDA78F"/>
<path d="M11.0229 16.3834C11.004 16.2291 10.7457 15.9771 10.6323 15.8921C10.3835 15.7031 10.1315 15.8984 10.056 16.1441C9.98982 16.3645 9.98352 16.6133 9.96777 16.8401C9.92997 17.3976 10.0119 17.9456 10.2575 18.4495C10.4213 18.7865 10.6764 19.0605 10.9819 19.2684C10.9819 19.2684 11.3095 19.4353 11.3756 19.0511C11.3756 19.0511 11.0197 16.3834 11.0197 16.3803L11.0229 16.3834Z" fill="#FBBCA0"/>
<path d="M11.0739 16.7207C11.0582 16.6105 10.8755 16.431 10.7968 16.368C10.6172 16.2325 10.4377 16.3711 10.3842 16.5475C10.3369 16.705 10.3338 16.8813 10.3212 17.0483C10.2928 17.4483 10.3527 17.8388 10.529 18.1978C10.6456 18.4372 10.8314 18.6356 11.0487 18.7837C11.0487 18.7837 11.2818 18.9033 11.329 18.6293C11.329 18.6293 11.0739 16.7207 11.0739 16.7176V16.7207Z" fill="#DDA78F"/>
<path d="M24.5637 16.888C24.5637 18.6485 24.2676 20.428 23.455 21.9524C22.7464 23.2846 21.6818 24.3523 20.5417 25.2027C19.6157 25.8924 18.6236 26.6987 17.4489 26.6011C16.2268 26.4971 15.2757 25.4326 14.3812 24.6011C13.1245 23.4295 12.1356 21.9776 11.5246 20.2674C11.1498 19.2123 10.9766 18.0249 10.9766 16.8911C10.9766 11.1999 14.019 7.62207 17.7701 7.62207C21.5212 7.62207 24.5637 11.1999 24.5637 16.8911V16.888Z" fill="#FBBCA0"/>
<path d="M28.7963 30.4365L20.9287 28.3799H14.6171L6.74952 30.4365C6.74952 30.4365 3.10551 31.7877 2.69922 36.0616H32.8434C32.4371 31.7877 28.7931 30.4365 28.7931 30.4365H28.7963Z" fill="#FBBCA0"/>
<path d="M28.7963 30.4365L20.9287 28.3799H14.6171L6.74952 30.4365C6.74952 30.4365 3.10551 31.7877 2.69922 36.0616H32.8434C32.4371 31.7877 28.7931 30.4365 28.7931 30.4365H28.7963Z" fill="white"/>
<path d="M28.7958 30.4371L22.9755 28.9159L17.7756 36.0653L12.6324 28.9033L6.75539 30.4403C6.75539 30.4403 3.11137 31.7914 2.70508 36.0653H32.8493C32.443 31.7914 28.799 30.4403 28.799 30.4403L28.7958 30.4371Z" fill="#595959"/>
<path d="M17.0835 32.4805L15.6348 36.0615H19.7512L18.3402 32.4805H17.0835Z" fill="#14BAAB"/>
<path d="M17.6777 28.4492L15.832 30.9247L17.1139 32.4901L17.7438 32.4806L18.3706 32.4712L19.602 30.8618L17.6777 28.4492Z" fill="#14BAAB"/>
<g style="mix-blend-mode:multiply">
<path d="M18.9103 30.5999C18.6741 31.066 18.2363 31.5983 17.6379 31.466C17.0206 31.3306 16.7403 30.7479 16.882 30.1558C17.0206 29.5795 17.3922 29.0976 17.6001 28.5527L15.8301 30.9243L17.1119 32.4896L18.3686 32.4676L19.6001 30.8613L19.0804 30.2094C19.03 30.3417 18.9733 30.4739 18.9103 30.5999Z" fill="#D1D3D4"/>
</g>
<path d="M17.7733 36.0614L12.6301 28.8994L8.51367 29.9734L13.7734 33.6741L12.4222 34.2725L14.8505 36.0614H17.7733Z" fill="#2C2C2C"/>
<path d="M17.7734 36.0712L22.9166 28.9092L27.0299 29.9832L21.7734 33.687L23.1245 34.2823L20.6931 36.0712H17.7734Z" fill="#2C2C2C"/>
<path d="M11.5215 28.5308L14.6049 27.082L17.7513 28.3954L20.8977 27.082L24.1921 28.5308L19.5339 31.6488L17.7513 29.0977L15.8332 31.6488L11.5215 28.5308Z" fill="#E2E3E4"/>
<path d="M21.7502 24.1719C21.7502 24.1719 23.4573 22.5593 23.8321 21.1357C23.8321 21.1357 21.8195 22.9499 21.1172 22.7578L21.7471 24.1719H21.7502Z" fill="#150000"/>
<path d="M14.2696 24.6541C14.2696 24.6541 12.2917 22.9597 11.75 20.8369C11.75 20.8369 14.0051 23.4416 14.7074 23.2463L14.2696 24.6541Z" fill="#150000"/>
<path d="M18.9758 21.8606C20.0939 21.8763 20.7018 22.2606 20.7018 22.2606C21.6813 22.7235 21.9333 23.9802 21.9333 23.9802C21.9333 23.9802 21.2593 24.7266 20.4341 25.2558C18.5727 26.799 17.7192 26.6037 17.7192 26.6037C16.6609 26.6037 15.9176 25.9423 15.9176 25.9423L14.176 24.5786C13.9586 23.029 15.3129 22.2606 15.3129 22.2606C16.1255 21.8669 16.2704 21.9173 16.2704 21.9173C16.2704 21.9173 17.4861 21.7755 17.7822 22.2574C17.7822 22.2574 18.0877 21.8574 18.916 21.8574" fill="#1E0500"/>
<path d="M17.9357 23.1391C17.9357 23.1391 17.1704 22.758 16.0586 23.1674C16.0586 23.1674 17.7467 24.9563 19.6617 23.1895C19.6617 23.1895 18.6349 22.7107 17.9326 23.1391H17.9357Z" fill="#FBBCA0"/>
<path d="M24.6237 8.49396C26.1543 7.37903 25.9874 5.66569 25.9874 5.66569C25.0961 6.64519 23.7922 6.77118 23.7922 6.77118C25.1433 5.96175 24.4725 4.27361 24.4725 4.27361C24.0505 5.21847 22.1733 5.76018 22.1733 5.76018C23.0835 5.15233 22.5166 3.76969 22.5166 3.76969C21.8804 4.84997 19.9781 5.3224 19.9781 5.3224C21.2285 4.61375 21.3607 3.59961 21.3607 3.59961C20.2458 4.57911 17.2097 5.05154 17.2097 5.05154C17.2097 5.05154 13.8617 5.35704 13.0302 8.13806C10.583 8.49081 10.561 12.6293 10.7311 14.8623L10.8854 17.5646H11.4303C11.1877 16.2701 11.4303 14.5158 11.4303 14.5158C11.8051 13.2592 11.9972 12.5159 12.2365 11.9899C12.8161 10.7238 13.72 10.3396 14.2963 10.2262L14.8444 10.1853C17.2412 9.83565 17.9467 11.5364 17.9467 11.5364C18.3183 10.5569 19.5687 10.3207 19.5687 10.3207C23.2127 9.83565 23.7355 12.7175 23.7355 12.7175L24.1481 14.5505C24.2048 15.1615 24.3024 16.5756 24.1166 17.5646H24.6615L24.8158 14.8623C24.8189 14.7772 24.8189 14.7048 24.8158 14.6387C25.0898 13.1332 25.3323 10.6766 24.6205 8.49396H24.6237Z" fill="#150000"/>
</g>
</svg>
