<svg width="36" height="36" viewBox="0 0 36 36" fill="none" xmlns="http://www.w3.org/2000/svg">
<path d="M18 36C27.9411 36 36 27.9411 36 18C36 8.05888 27.9411 0 18 0C8.05887 0 0 8.05888 0 18C0 27.9411 8.05887 36 18 36Z" fill="#D1BEDC"/>
<mask id="mask0_444_26648" style="mask-type:alpha" maskUnits="userSpaceOnUse" x="0" y="0" width="36" height="36">
<path d="M18 36C27.9411 36 36 27.9411 36 18C36 8.05888 27.9411 0 18 0C8.05887 0 0 8.05888 0 18C0 27.9411 8.05887 36 18 36Z" fill="#18ADD9"/>
</mask>
<g mask="url(#mask0_444_26648)">
<path d="M30.0484 7H23.8957V9.89304H25.1086L22.3537 12.648C19.7495 10.875 16.2989 10.875 13.6947 12.648L13.0568 12.0101L14.0613 11.0056L12.8961 9.84031L11.8916 10.8448L10.9398 9.89304H12.1527V7H6V13.1527H8.89305V11.9398L9.84483 12.8916L8.8403 13.8961L10.0056 15.0613L11.0101 14.0568L11.648 14.6947C10.759 15.9981 10.3144 17.5124 10.3144 19.0292H13.2075C13.2075 17.7962 13.6771 16.5631 14.6189 15.6239C16.4998 13.7429 19.5486 13.7429 21.4296 15.6239C22.3688 16.5631 22.8409 17.7962 22.8409 19.0292H25.734C25.734 17.5149 25.2895 16.0006 24.4005 14.6972L27.1554 11.9423V13.1553H30.0484V7.00251V7Z" fill="#743995"/>
<path d="M23.4743 24.4765C24.9786 22.9722 25.732 20.9983 25.732 19.0244H22.839C22.839 20.2575 22.3694 21.4905 21.4276 22.4298C19.5466 24.3107 16.4979 24.3107 14.6169 22.4298C13.6777 21.4905 13.2055 20.2575 13.2055 19.0244H10.3125C10.3125 20.9983 11.0659 22.9697 12.5702 24.4765C13.7053 25.6116 15.1066 26.3198 16.5757 26.5986V28.2334H14.2076V31.1265H16.5757V32.9999H19.4688V31.1265H21.837V28.2334H19.4688V26.5986C20.9354 26.3198 22.3367 25.6141 23.4743 24.4765Z" fill="#D0DD25"/>
<path d="M18.8152 28.1074H16.5801V28.3586H18.8152V28.1074Z" fill="#ACB903"/>
<path d="M18.8152 31.001H16.5801V31.2521H18.8152V31.001Z" fill="#ACB903"/>
<path d="M27.2813 11.9399H27.0302V10.0187H25.9453V9.76758H27.2813V11.9399Z" fill="#5A1B7D"/>
<path d="M18.0238 26.854C17.5291 26.854 17.0343 26.8088 16.5547 26.7158L16.6024 26.4697C17.3206 26.6053 18.0715 26.638 18.8023 26.5652L18.8274 26.8138C18.5638 26.8414 18.2925 26.854 18.0263 26.854H18.0238Z" fill="#ACB903"/>
<path d="M24.2972 14.761C24.031 14.3692 23.7247 14.0001 23.3856 13.661C23.2023 13.4777 23.0089 13.3019 22.8105 13.1412L22.9688 12.9453C23.1747 13.1136 23.3756 13.2944 23.5639 13.4827C23.913 13.8318 24.232 14.216 24.5057 14.6204L24.2972 14.761Z" fill="#5A1B7D"/>
<path d="M9.02262 11.9399H8.77148V9.76758H10.105V10.0187H9.02262V11.9399Z" fill="#5A1B7D"/>
<path d="M11.7514 14.761L11.543 14.6204C11.8192 14.216 12.1356 13.8343 12.4847 13.4827C12.6731 13.2944 12.874 13.1136 13.0799 12.9453L13.2381 13.1412C13.0397 13.3044 12.8438 13.4802 12.663 13.661C12.324 14.0001 12.0176 14.3692 11.7514 14.761Z" fill="#5A1B7D"/>
</g>
</svg>
